<svg class="diagram-root" style="background: #f5f6f6" xmlns="http://www.w3.org/2000/svg" xmlns:xlink="http://www.w3.org/1999/xlink"><style>.diagram-root { font-family: "Helvetica Neue", sans-serif; font-size: 12px; } .t { overflow: visible; } .t-bg { y: 40; fill: #fff;   } .th { fill: #005aa0;   } .tht { fill: #fff; font-size: 14px;  } .tf { fill: #323c46; overflow: visible; } .tf.pk { fill: #005aa0; font-weight: bold; } .tf.fk { font-weight: bold; } .ty { fill: #adb1b5; font-weight: normal; text-anchor: end; } .r { fill: transparent; stroke: #c3c3c3; stroke-width: 1; } .l { stroke: 1; } .i { fill: #c2c7ce; stroke: #c2c7ce; } .i.ix { fill: #afb3b6; stroke: #000; } .fa { fill: transparent; overflow: visible; } .fa .bg.hover { fill: #f7f7f7; } .c { cy: 12; r: 4; stroke: #d2d2dc; fill: #d2d2dc; } .hr { fill: transparent; stroke: #323c46; stroke-opacity: 0.035; stroke-width: 13; } .dc { stroke: #fa5a3c; fill: #fa5a3c; } .x { stroke: white; stroke-width: 1; } .hl .th { fill: #1b9bff; } .hl .tht {  } .fhl .bg { fill: #e7f4ff; } .fhls .bg {  } .r.hl { stroke: #1b9bff; } .dim { opacity: 0.25; }</style><g class="drawing-wrapper" transform="translate(-190, 303) scale(1,1)"><g class="rs"><path d="M 455 -133 m -1, 0 a 1,1 0 1,0 2,0 a 1,1 0 1,0 -2,0 M 455 -133 m -0.5, 0 a 0.5,0.5 0 1,0 1,0 a 0.5,0.5 0 1,0 -1,0  M455 -133 L455 -133 443 -133 M 455 -127 m -1, 0 a 1,1 0 1,0 2,0 a 1,1 0 1,0 -2,0 M 455 -127 m -0.5, 0 a 0.5,0.5 0 1,0 1,0 a 0.5,0.5 0 1,0 -1,0  M455 -127 L455 -127 448 -133 455 -139 M 455 -139 m -1, 0 a 1,1 0 1,0 2,0 a 1,1 0 1,0 -2,0 M 455 -139 m -0.5, 0 a 0.5,0.5 0 1,0 1,0 a 0.5,0.5 0 1,0 -1,0  M443 -133 Q 414.59 -133, 386.18 -174.5 T 329.36 -216 M 317.36 -216 m -1, 0 a 1,1 0 1,0 2,0 a 1,1 0 1,0 -2,0 M 317.36 -216 m -0.5, 0 a 0.5,0.5 0 1,0 1,0 a 0.5,0.5 0 1,0 -1,0  M317.36 -216 L317.36 -216 329.36 -216 M323.36 -210 L323.36 -210 323.36 -222" id="h1671819281" class="r"></path><path d="M 605.71 85 m -1, 0 a 1,1 0 1,0 2,0 a 1,1 0 1,0 -2,0 M 605.71 85 m -0.5, 0 a 0.5,0.5 0 1,0 1,0 a 0.5,0.5 0 1,0 -1,0  M605.71 85 L605.71 85 617.71 85 M 605.71 91 m -1, 0 a 1,1 0 1,0 2,0 a 1,1 0 1,0 -2,0 M 605.71 91 m -0.5, 0 a 0.5,0.5 0 1,0 1,0 a 0.5,0.5 0 1,0 -1,0  M605.71 91 L605.71 91 612.71 85 605.71 79 M 605.71 79 m -1, 0 a 1,1 0 1,0 2,0 a 1,1 0 1,0 -2,0 M 605.71 79 m -0.5, 0 a 0.5,0.5 0 1,0 1,0 a 0.5,0.5 0 1,0 -1,0  M617.71 85 C 686.622 85, 679.53 -208, 629.53 -208 M 617.53 -208 m -1, 0 a 1,1 0 1,0 2,0 a 1,1 0 1,0 -2,0 M 617.53 -208 m -0.5, 0 a 0.5,0.5 0 1,0 1,0 a 0.5,0.5 0 1,0 -1,0  M617.53 -208 L617.53 -208 629.53 -208 M623.53 -202 L623.53 -202 623.53 -214" id="h2015774231" class="r"></path><path d="M 605.71 135 m -1, 0 a 1,1 0 1,0 2,0 a 1,1 0 1,0 -2,0 M 605.71 135 m -0.5, 0 a 0.5,0.5 0 1,0 1,0 a 0.5,0.5 0 1,0 -1,0  M605.71 135 L605.71 135 617.71 135 M 605.71 141 m -1, 0 a 1,1 0 1,0 2,0 a 1,1 0 1,0 -2,0 M 605.71 141 m -0.5, 0 a 0.5,0.5 0 1,0 1,0 a 0.5,0.5 0 1,0 -1,0  M605.71 141 L605.71 141 612.71 135 605.71 129 M 605.71 129 m -1, 0 a 1,1 0 1,0 2,0 a 1,1 0 1,0 -2,0 M 605.71 129 m -0.5, 0 a 0.5,0.5 0 1,0 1,0 a 0.5,0.5 0 1,0 -1,0  M617.71 135 Q 648.29 135, 678.86 -40 T 740 -215 M 752 -215 m -1, 0 a 1,1 0 1,0 2,0 a 1,1 0 1,0 -2,0 M 752 -215 m -0.5, 0 a 0.5,0.5 0 1,0 1,0 a 0.5,0.5 0 1,0 -1,0  M752 -215 L752 -215 740 -215 M746 -209 L746 -209 746 -221" id="h3197795845" class="r"></path><path d="M 485 160 m -1, 0 a 1,1 0 1,0 2,0 a 1,1 0 1,0 -2,0 M 485 160 m -0.5, 0 a 0.5,0.5 0 1,0 1,0 a 0.5,0.5 0 1,0 -1,0  M485 160 L485 160 473 160 M 485 166 m -1, 0 a 1,1 0 1,0 2,0 a 1,1 0 1,0 -2,0 M 485 166 m -0.5, 0 a 0.5,0.5 0 1,0 1,0 a 0.5,0.5 0 1,0 -1,0  M485 166 L485 166 478 160 485 154 M 485 154 m -1, 0 a 1,1 0 1,0 2,0 a 1,1 0 1,0 -2,0 M 485 154 m -0.5, 0 a 0.5,0.5 0 1,0 1,0 a 0.5,0.5 0 1,0 -1,0  M473 160 Q 437.09 160, 401.18 -28 T 329.36 -216 M 317.36 -216 m -1, 0 a 1,1 0 1,0 2,0 a 1,1 0 1,0 -2,0 M 317.36 -216 m -0.5, 0 a 0.5,0.5 0 1,0 1,0 a 0.5,0.5 0 1,0 -1,0  M317.36 -216 L317.36 -216 329.36 -216 M323.36 -210 L323.36 -210 323.36 -222" id="h2133289655" class="r"></path></g><g class="hrs"></g><g class="ts"><svg width="105.36" height="100" x="212" y="-273" id="h850082920" class="t"><rect height="40" width="105.36" class="th"></rect><text x="13" y="25" class="tht">regions</text><rect height="60" width="105.36" class="t-bg"></rect><text x="13" y="61" class="tf pk">id<tspan x="92.36" class="ty">int</tspan></text><path d="M7,14A2,2 0 0,1 5,12A2,2 0 0,1 7,10A2,2 0 0,1 9,12A2,2 0 0,1 7,14M12.65,10C11.83,7.67 9.61,6 7, 6A6, 6 0 0, 0 1, 12A6, 6 0 0, 0 7, 18C9.61, 18 11.83, 16.33 12.65, 14H17V18H21V14H23V10H12.65Z" class="i pk" transform="translate(59.686171875, 48) scale(0.65)"></path><text x="13" y="86" class="tf">name<tspan x="92.36" class="ty">string</tspan></text></svg><svg width="105.36" height="100" x="752" y="-272" id="h2129794260" class="t"><rect height="40" width="105.36" class="th"></rect><text x="13" y="25" class="tht">categories</text><rect height="60" width="105.36" class="t-bg"></rect><text x="13" y="61" class="tf pk">id<tspan x="92.36" class="ty">int</tspan></text><path d="M7,14A2,2 0 0,1 5,12A2,2 0 0,1 7,10A2,2 0 0,1 9,12A2,2 0 0,1 7,14M12.65,10C11.83,7.67 9.61,6 7, 6A6, 6 0 0, 0 1, 12A6, 6 0 0, 0 7, 18C9.61, 18 11.83, 16.33 12.65, 14H17V18H21V14H23V10H12.65Z" class="i pk" transform="translate(59.686171875, 48) scale(0.65)"></path><text x="13" y="86" class="tf">name<tspan x="92.36" class="ty">string</tspan></text></svg><svg width="162.53" height="150" x="455" y="-265" id="h2948373614" class="t"><rect height="40" width="162.53" class="th"></rect><text x="13" y="25" class="tht">users</text><rect height="110" width="162.53" class="t-bg"></rect><text x="13" y="61" class="tf pk">id<tspan x="149.53" class="ty">int</tspan></text><path d="M7,14A2,2 0 0,1 5,12A2,2 0 0,1 7,10A2,2 0 0,1 9,12A2,2 0 0,1 7,14M12.65,10C11.83,7.67 9.61,6 7, 6A6, 6 0 0, 0 1, 12A6, 6 0 0, 0 7, 18C9.61, 18 11.83, 16.33 12.65, 14H17V18H21V14H23V10H12.65Z" class="i pk" transform="translate(116.856171875, 48) scale(0.65)"></path><text x="13" y="86" class="tf">username<tspan x="149.53" class="ty">string</tspan></text><text x="13" y="111" class="tf">password<tspan x="149.53" class="ty">string</tspan></text><text x="13" y="136" class="tf fk">preffered_region_id<tspan x="149.53" class="ty">int</tspan></text></svg><svg width="120.71" height="250" x="485" y="-47" id="h2471855060" class="t"><rect height="40" width="120.71" class="th"></rect><text x="13" y="25" class="tht">posts</text><rect height="210" width="120.71" class="t-bg"></rect><text x="13" y="61" class="tf pk">id<tspan x="107.71" class="ty">int</tspan></text><path d="M7,14A2,2 0 0,1 5,12A2,2 0 0,1 7,10A2,2 0 0,1 9,12A2,2 0 0,1 7,14M12.65,10C11.83,7.67 9.61,6 7, 6A6, 6 0 0, 0 1, 12A6, 6 0 0, 0 7, 18C9.61, 18 11.83, 16.33 12.65, 14H17V18H21V14H23V10H12.65Z" class="i pk" transform="translate(75.036171875, 48) scale(0.65)"></path><text x="13" y="86" class="tf">title<tspan x="107.71" class="ty">string</tspan></text><text x="13" y="111" class="tf">text<tspan x="107.71" class="ty">string</tspan></text><text x="13" y="136" class="tf fk">user_id<tspan x="107.71" class="ty">int</tspan></text><text x="13" y="161" class="tf">location<tspan x="107.71" class="ty">string</tspan></text><text x="13" y="186" class="tf fk">category_id<tspan x="107.71" class="ty">int</tspan></text><text x="13" y="211" class="tf fk">region_id<tspan x="107.71" class="ty">int</tspan></text><text x="13" y="236" class="tf">date<tspan x="107.71" class="ty">date</tspan></text></svg></g></g><text class="qdbd-link" x="10" y="20">www.quickdatabasediagrams.com</text></svg>