<svg class="diagram-root" style="background: #f5f6f6" xmlns="http://www.w3.org/2000/svg" xmlns:xlink="http://www.w3.org/1999/xlink"><style>.diagram-root { font-family: "Helvetica Neue", sans-serif; font-size: 12px; } .t { overflow: visible; } .t-bg { y: 40; fill: #fff;   } .th { fill: #005aa0;   } .tht { fill: #fff; font-size: 14px;  } .tf { fill: #323c46; overflow: visible; } .tf.pk { fill: #005aa0; font-weight: bold; } .tf.fk { font-weight: bold; } .ty { fill: #adb1b5; font-weight: normal; text-anchor: end; } .r { fill: transparent; stroke: #c3c3c3; stroke-width: 1; } .l { stroke: 1; } .i { fill: #c2c7ce; stroke: #c2c7ce; } .i.ix { fill: #afb3b6; stroke: #000; } .fa { fill: transparent; overflow: visible; } .fa .bg.hover { fill: #f7f7f7; } .c { cy: 12; r: 4; stroke: #d2d2dc; fill: #d2d2dc; } .hr { fill: transparent; stroke: #323c46; stroke-opacity: 0.035; stroke-width: 13; } .dc { stroke: #fa5a3c; fill: #fa5a3c; } .x { stroke: white; stroke-width: 1; } .hl .th { fill: #1b9bff; } .hl .tht {  } .fhl .bg { fill: #e7f4ff; } .fhls .bg {  } .r.hl { stroke: #1b9bff; } .dim { opacity: 0.25; }</style><g class="drawing-wrapper" transform="translate(-75, 254) scale(1,1)"><g class="rs"><path d="M 383 -100 m -1, 0 a 1,1 0 1,0 2,0 a 1,1 0 1,0 -2,0 M 383 -100 m -0.5, 0 a 0.5,0.5 0 1,0 1,0 a 0.5,0.5 0 1,0 -1,0  M383 -100 L383 -100 371 -100 M 383 -94 m -1, 0 a 1,1 0 1,0 2,0 a 1,1 0 1,0 -2,0 M 383 -94 m -0.5, 0 a 0.5,0.5 0 1,0 1,0 a 0.5,0.5 0 1,0 -1,0  M383 -94 L383 -94 376 -100 383 -106 M 383 -106 m -1, 0 a 1,1 0 1,0 2,0 a 1,1 0 1,0 -2,0 M 383 -106 m -0.5, 0 a 0.5,0.5 0 1,0 1,0 a 0.5,0.5 0 1,0 -1,0  M371 -100 Q 336.68 -100, 302.35 -133.5 T 233.7 -167 M 221.7 -167 m -1, 0 a 1,1 0 1,0 2,0 a 1,1 0 1,0 -2,0 M 221.7 -167 m -0.5, 0 a 0.5,0.5 0 1,0 1,0 a 0.5,0.5 0 1,0 -1,0  M221.7 -167 L221.7 -167 233.7 -167 M227.7 -161 L227.7 -161 227.7 -173" id="h8357394" class="r"></path><path d="M 383 -75 m -1, 0 a 1,1 0 1,0 2,0 a 1,1 0 1,0 -2,0 M 383 -75 m -0.5, 0 a 0.5,0.5 0 1,0 1,0 a 0.5,0.5 0 1,0 -1,0  M383 -75 L383 -75 371 -75 M 383 -69 m -1, 0 a 1,1 0 1,0 2,0 a 1,1 0 1,0 -2,0 M 383 -69 m -0.5, 0 a 0.5,0.5 0 1,0 1,0 a 0.5,0.5 0 1,0 -1,0  M383 -69 L383 -69 376 -75 383 -81 M 383 -81 m -1, 0 a 1,1 0 1,0 2,0 a 1,1 0 1,0 -2,0 M 383 -81 m -0.5, 0 a 0.5,0.5 0 1,0 1,0 a 0.5,0.5 0 1,0 -1,0  M371 -75 Q 334.76 -75, 298.52 -18.5 T 226.05 38 M 214.05 38 m -1, 0 a 1,1 0 1,0 2,0 a 1,1 0 1,0 -2,0 M 214.05 38 m -0.5, 0 a 0.5,0.5 0 1,0 1,0 a 0.5,0.5 0 1,0 -1,0  M214.05 38 L214.05 38 226.05 38 M220.05 44 L220.05 44 220.05 32" id="h2101535807" class="r"></path><path d="M 395.57 131.86 m -1, 0 a 1,1 0 1,0 2,0 a 1,1 0 1,0 -2,0 M 395.57 131.86 m -0.5, 0 a 0.5,0.5 0 1,0 1,0 a 0.5,0.5 0 1,0 -1,0  M395.57 131.86 L395.57 131.86 383.57 131.86 M 395.57 137.86 m -1, 0 a 1,1 0 1,0 2,0 a 1,1 0 1,0 -2,0 M 395.57 137.86 m -0.5, 0 a 0.5,0.5 0 1,0 1,0 a 0.5,0.5 0 1,0 -1,0  M395.57 137.86 L395.57 137.86 388.57 131.86 395.57 125.86000000000001 M 395.57 125.86000000000001 m -1, 0 a 1,1 0 1,0 2,0 a 1,1 0 1,0 -2,0 M 395.57 125.86000000000001 m -0.5, 0 a 0.5,0.5 0 1,0 1,0 a 0.5,0.5 0 1,0 -1,0  M383.57 131.86 C 313.458 131.86, 321 -125, 371 -125 M 383 -125 m -1, 0 a 1,1 0 1,0 2,0 a 1,1 0 1,0 -2,0 M 383 -125 m -0.5, 0 a 0.5,0.5 0 1,0 1,0 a 0.5,0.5 0 1,0 -1,0  M383 -125 L383 -125 371 -125 M377 -119 L377 -119 377 -131" id="h3904987318" class="r"></path><path d="M 395.57 156.86 m -1, 0 a 1,1 0 1,0 2,0 a 1,1 0 1,0 -2,0 M 395.57 156.86 m -0.5, 0 a 0.5,0.5 0 1,0 1,0 a 0.5,0.5 0 1,0 -1,0  M395.57 156.86 L395.57 156.86 383.57 156.86 M 395.57 162.86 m -1, 0 a 1,1 0 1,0 2,0 a 1,1 0 1,0 -2,0 M 395.57 162.86 m -0.5, 0 a 0.5,0.5 0 1,0 1,0 a 0.5,0.5 0 1,0 -1,0  M395.57 162.86 L395.57 162.86 388.57 156.86 395.57 150.86 M 395.57 150.86 m -1, 0 a 1,1 0 1,0 2,0 a 1,1 0 1,0 -2,0 M 395.57 150.86 m -0.5, 0 a 0.5,0.5 0 1,0 1,0 a 0.5,0.5 0 1,0 -1,0  M383.57 156.86 C 333.57 156.86, 218.712 -35, 575 -35 M 587 -35 m -1, 0 a 1,1 0 1,0 2,0 a 1,1 0 1,0 -2,0 M 587 -35 m -0.5, 0 a 0.5,0.5 0 1,0 1,0 a 0.5,0.5 0 1,0 -1,0  M587 -35 L587 -35 575 -35 M581 -29 L581 -29 581 -41" id="h2018726782" class="r"></path></g><g class="hrs"></g><g class="ts"><svg width="124.7" height="125" x="97" y="-224" id="h2153083178" class="t"><rect height="40" width="124.7" class="th"></rect><text x="13" y="25" class="tht">doctors</text><rect height="85" width="124.7" class="t-bg"></rect><text x="13" y="61" class="tf pk">id<tspan x="111.7" class="ty">int</tspan></text><path d="M7,14A2,2 0 0,1 5,12A2,2 0 0,1 7,10A2,2 0 0,1 9,12A2,2 0 0,1 7,14M12.65,10C11.83,7.67 9.61,6 7, 6A6, 6 0 0, 0 1, 12A6, 6 0 0, 0 7, 18C9.61, 18 11.83, 16.33 12.65, 14H17V18H21V14H23V10H12.65Z" class="i pk" transform="translate(79.026171875, 48) scale(0.65)"></path><text x="13" y="86" class="tf">name<tspan x="111.7" class="ty">string</tspan></text><path d="M814.545 581.818v-23.273H535.273v-93.09h-46.546v93.09H209.455v139.637H256V605.09h232.727v93.09h46.546v-93.09H768v93.09h46.545V581.819zM674.91 465.455H349.091V139.636h325.818v325.819zM325.82 884.364H139.635V698.182h186.182v186.182z m279.272 0H418.909V698.182h186.182v186.182z m279.273 0H698.182V698.182h186.182v186.182zM395.636 418.909h232.728V186.182H395.636v232.727zM186.182 837.82h93.09v-93.092h-93.09v93.091z m279.273 0h93.09v-93.092h-93.09v93.091z m279.272 0h93.091v-93.092h-93.09v93.091z" class="i ix" transform="translate(67.35625, 75) scale(0.014)"></path><text x="13" y="111" class="tf">speciality<tspan x="111.7" class="ty">string</tspan></text></svg><svg width="112.05" height="125" x="102" y="-19" id="h2571196243" class="t"><rect height="40" width="112.05" class="th"></rect><text x="13" y="25" class="tht">patients</text><rect height="85" width="112.05" class="t-bg"></rect><text x="13" y="61" class="tf pk">id<tspan x="99.05" class="ty">int</tspan></text><path d="M7,14A2,2 0 0,1 5,12A2,2 0 0,1 7,10A2,2 0 0,1 9,12A2,2 0 0,1 7,14M12.65,10C11.83,7.67 9.61,6 7, 6A6, 6 0 0, 0 1, 12A6, 6 0 0, 0 7, 18C9.61, 18 11.83, 16.33 12.65, 14H17V18H21V14H23V10H12.65Z" class="i pk" transform="translate(66.376171875, 48) scale(0.65)"></path><text x="13" y="86" class="tf">name<tspan x="99.05" class="ty">string</tspan></text><text x="13" y="111" class="tf">birthday<tspan x="99.05" class="ty">date</tspan></text></svg><svg width="133.38" height="125" x="587" y="-92" id="h234337789" class="t"><rect height="40" width="133.38" class="th"></rect><text x="13" y="25" class="tht">diseases</text><rect height="85" width="133.38" class="t-bg"></rect><text x="13" y="61" class="tf pk">id<tspan x="120.38" class="ty">int</tspan></text><path d="M7,14A2,2 0 0,1 5,12A2,2 0 0,1 7,10A2,2 0 0,1 9,12A2,2 0 0,1 7,14M12.65,10C11.83,7.67 9.61,6 7, 6A6, 6 0 0, 0 1, 12A6, 6 0 0, 0 7, 18C9.61, 18 11.83, 16.33 12.65, 14H17V18H21V14H23V10H12.65Z" class="i pk" transform="translate(87.706171875, 48) scale(0.65)"></path><text x="13" y="86" class="tf">name<tspan x="120.38" class="ty">string</tspan></text><text x="13" y="111" class="tf">description<tspan x="120.38" class="ty">string</tspan></text></svg><svg width="110.72" height="125" x="383" y="-182" id="h2569522486" class="t"><rect height="40" width="110.72" class="th"></rect><text x="13" y="25" class="tht">visits</text><rect height="85" width="110.72" class="t-bg"></rect><text x="13" y="61" class="tf pk">id<tspan x="97.72" class="ty">int</tspan></text><path d="M7,14A2,2 0 0,1 5,12A2,2 0 0,1 7,10A2,2 0 0,1 9,12A2,2 0 0,1 7,14M12.65,10C11.83,7.67 9.61,6 7, 6A6, 6 0 0, 0 1, 12A6, 6 0 0, 0 7, 18C9.61, 18 11.83, 16.33 12.65, 14H17V18H21V14H23V10H12.65Z" class="i pk" transform="translate(65.046171875, 48) scale(0.65)"></path><text x="13" y="86" class="tf fk">doctor_id<tspan x="97.72" class="ty">int</tspan></text><text x="13" y="111" class="tf fk">patient_id<tspan x="97.72" class="ty">int</tspan></text></svg><svg width="116.05" height="125" x="395.57" y="49.86" id="h647382338" class="t"><rect height="40" width="116.05" class="th"></rect><text x="13" y="25" class="tht">diagnoses</text><rect height="85" width="116.05" class="t-bg"></rect><text x="13" y="61" class="tf pk">id<tspan x="103.05" class="ty">int</tspan></text><path d="M7,14A2,2 0 0,1 5,12A2,2 0 0,1 7,10A2,2 0 0,1 9,12A2,2 0 0,1 7,14M12.65,10C11.83,7.67 9.61,6 7, 6A6, 6 0 0, 0 1, 12A6, 6 0 0, 0 7, 18C9.61, 18 11.83, 16.33 12.65, 14H17V18H21V14H23V10H12.65Z" class="i pk" transform="translate(70.376171875, 48) scale(0.65)"></path><text x="13" y="86" class="tf fk">visit_id<tspan x="103.05" class="ty">int</tspan></text><text x="13" y="111" class="tf fk">disease_id<tspan x="103.05" class="ty">int</tspan></text></svg></g></g><text class="qdbd-link" x="10" y="20">www.quickdatabasediagrams.com</text></svg>