<svg class="diagram-root" style="background: #f5f6f6" xmlns="http://www.w3.org/2000/svg" xmlns:xlink="http://www.w3.org/1999/xlink"><style>.diagram-root { font-family: "Helvetica Neue", sans-serif; font-size: 12px; } .t { overflow: visible; } .t-bg { y: 40; fill: #fff;   } .th { fill: #005aa0;   } .tht { fill: #fff; font-size: 14px;  } .tf { fill: #323c46; overflow: visible; } .tf.pk { fill: #005aa0; font-weight: bold; } .tf.fk { font-weight: bold; } .ty { fill: #adb1b5; font-weight: normal; text-anchor: end; } .r { fill: transparent; stroke: #c3c3c3; stroke-width: 1; } .l { stroke: 1; } .i { fill: #c2c7ce; stroke: #c2c7ce; } .i.ix { fill: #afb3b6; stroke: #000; } .fa { fill: transparent; overflow: visible; } .fa .bg.hover { fill: #f7f7f7; } .c { cy: 12; r: 4; stroke: #d2d2dc; fill: #d2d2dc; } .hr { fill: transparent; stroke: #323c46; stroke-opacity: 0.035; stroke-width: 13; } .dc { stroke: #fa5a3c; fill: #fa5a3c; } .x { stroke: white; stroke-width: 1; } .hl .th { fill: #1b9bff; } .hl .tht {  } .fhl .bg { fill: #e7f4ff; } .fhls .bg {  } .r.hl { stroke: #1b9bff; } .dim { opacity: 0.25; }</style><g class="drawing-wrapper" transform="translate(-269.25, 423.75) scale(1,1)"><g class="rs"><path d="M 415.29 247 m -1, 0 a 1,1 0 1,0 2,0 a 1,1 0 1,0 -2,0 M 415.29 247 m -0.5, 0 a 0.5,0.5 0 1,0 1,0 a 0.5,0.5 0 1,0 -1,0  M415.29 247 L415.29 247 427.29 247 M 415.29 253 m -1, 0 a 1,1 0 1,0 2,0 a 1,1 0 1,0 -2,0 M 415.29 253 m -0.5, 0 a 0.5,0.5 0 1,0 1,0 a 0.5,0.5 0 1,0 -1,0  M415.29 253 L415.29 253 422.29 247 415.29 241 M 415.29 241 m -1, 0 a 1,1 0 1,0 2,0 a 1,1 0 1,0 -2,0 M 415.29 241 m -0.5, 0 a 0.5,0.5 0 1,0 1,0 a 0.5,0.5 0 1,0 -1,0  M427.29 247 C 506.34599999999995 247, 495.45 -271.75, 445.45 -271.75 M 433.45 -271.75 m -1, 0 a 1,1 0 1,0 2,0 a 1,1 0 1,0 -2,0 M 433.45 -271.75 m -0.5, 0 a 0.5,0.5 0 1,0 1,0 a 0.5,0.5 0 1,0 -1,0  M433.45 -271.75 L433.45 -271.75 445.45 -271.75 M439.45 -265.75 L439.45 -265.75 439.45 -277.75" id="h1010843080" class="r"></path><path d="M 717.5 -304.25 m -1, 0 a 1,1 0 1,0 2,0 a 1,1 0 1,0 -2,0 M 717.5 -304.25 m -0.5, 0 a 0.5,0.5 0 1,0 1,0 a 0.5,0.5 0 1,0 -1,0  M717.5 -304.25 L717.5 -304.25 705.5 -304.25 M 717.5 -298.25 m -1, 0 a 1,1 0 1,0 2,0 a 1,1 0 1,0 -2,0 M 717.5 -298.25 m -0.5, 0 a 0.5,0.5 0 1,0 1,0 a 0.5,0.5 0 1,0 -1,0  M717.5 -298.25 L717.5 -298.25 710.5 -304.25 717.5 -310.25 M 717.5 -310.25 m -1, 0 a 1,1 0 1,0 2,0 a 1,1 0 1,0 -2,0 M 717.5 -310.25 m -0.5, 0 a 0.5,0.5 0 1,0 1,0 a 0.5,0.5 0 1,0 -1,0  M705.5 -304.25 Q 635.95 -304.25, 566.4 -66.12 T 427.29 172 M 415.29 172 m -1, 0 a 1,1 0 1,0 2,0 a 1,1 0 1,0 -2,0 M 415.29 172 m -0.5, 0 a 0.5,0.5 0 1,0 1,0 a 0.5,0.5 0 1,0 -1,0  M415.29 172 L415.29 172 427.29 172 M421.29 178 L421.29 178 421.29 166" id="h966818545" class="r"></path><path d="M 717.5 -279.25 m -1, 0 a 1,1 0 1,0 2,0 a 1,1 0 1,0 -2,0 M 717.5 -279.25 m -0.5, 0 a 0.5,0.5 0 1,0 1,0 a 0.5,0.5 0 1,0 -1,0  M717.5 -279.25 L717.5 -279.25 705.5 -279.25 M 717.5 -273.25 m -1, 0 a 1,1 0 1,0 2,0 a 1,1 0 1,0 -2,0 M 717.5 -273.25 m -0.5, 0 a 0.5,0.5 0 1,0 1,0 a 0.5,0.5 0 1,0 -1,0  M717.5 -273.25 L717.5 -273.25 710.5 -279.25 717.5 -285.25 M 717.5 -285.25 m -1, 0 a 1,1 0 1,0 2,0 a 1,1 0 1,0 -2,0 M 717.5 -285.25 m -0.5, 0 a 0.5,0.5 0 1,0 1,0 a 0.5,0.5 0 1,0 -1,0  M705.5 -279.25 C 649.5 -279.25, 651.75 114.5, 701.75 114.5 M 713.75 114.5 m -1, 0 a 1,1 0 1,0 2,0 a 1,1 0 1,0 -2,0 M 713.75 114.5 m -0.5, 0 a 0.5,0.5 0 1,0 1,0 a 0.5,0.5 0 1,0 -1,0  M713.75 114.5 L713.75 114.5 701.75 114.5 M707.75 120.5 L707.75 120.5 707.75 108.5" id="h1628671892" class="r"></path><path d="M 1241.25 -98 m -1, 0 a 1,1 0 1,0 2,0 a 1,1 0 1,0 -2,0 M 1241.25 -98 m -0.5, 0 a 0.5,0.5 0 1,0 1,0 a 0.5,0.5 0 1,0 -1,0  M1241.25 -98 L1241.25 -98 1229.25 -98 M 1241.25 -92 m -1, 0 a 1,1 0 1,0 2,0 a 1,1 0 1,0 -2,0 M 1241.25 -92 m -0.5, 0 a 0.5,0.5 0 1,0 1,0 a 0.5,0.5 0 1,0 -1,0  M1241.25 -92 L1241.25 -92 1234.25 -98 1241.25 -104 M 1241.25 -104 m -1, 0 a 1,1 0 1,0 2,0 a 1,1 0 1,0 -2,0 M 1241.25 -104 m -0.5, 0 a 0.5,0.5 0 1,0 1,0 a 0.5,0.5 0 1,0 -1,0  M1229.25 -98 Q 1141.23 -98, 1053.21 8.25 T 877.16 114.5 M 865.16 114.5 m -1, 0 a 1,1 0 1,0 2,0 a 1,1 0 1,0 -2,0 M 865.16 114.5 m -0.5, 0 a 0.5,0.5 0 1,0 1,0 a 0.5,0.5 0 1,0 -1,0  M865.16 114.5 L865.16 114.5 877.16 114.5 M871.16 120.5 L871.16 120.5 871.16 108.5" id="h3068980149" class="r"></path><path d="M 1241.25 -73 m -1, 0 a 1,1 0 1,0 2,0 a 1,1 0 1,0 -2,0 M 1241.25 -73 m -0.5, 0 a 0.5,0.5 0 1,0 1,0 a 0.5,0.5 0 1,0 -1,0  M1241.25 -73 L1241.25 -73 1229.25 -73 M 1241.25 -67 m -1, 0 a 1,1 0 1,0 2,0 a 1,1 0 1,0 -2,0 M 1241.25 -67 m -0.5, 0 a 0.5,0.5 0 1,0 1,0 a 0.5,0.5 0 1,0 -1,0  M1241.25 -67 L1241.25 -67 1234.25 -73 1241.25 -79 M 1241.25 -79 m -1, 0 a 1,1 0 1,0 2,0 a 1,1 0 1,0 -2,0 M 1241.25 -79 m -0.5, 0 a 0.5,0.5 0 1,0 1,0 a 0.5,0.5 0 1,0 -1,0  M1229.25 -73 Q 1033.3 -73, 837.35 -172.37 T 445.45 -271.75 M 433.45 -271.75 m -1, 0 a 1,1 0 1,0 2,0 a 1,1 0 1,0 -2,0 M 433.45 -271.75 m -0.5, 0 a 0.5,0.5 0 1,0 1,0 a 0.5,0.5 0 1,0 -1,0  M433.45 -271.75 L433.45 -271.75 445.45 -271.75 M439.45 -265.75 L439.45 -265.75 439.45 -277.75" id="h2330647833" class="r"></path><path d="M 1347.5 240.75 m -1, 0 a 1,1 0 1,0 2,0 a 1,1 0 1,0 -2,0 M 1347.5 240.75 m -0.5, 0 a 0.5,0.5 0 1,0 1,0 a 0.5,0.5 0 1,0 -1,0  M1347.5 240.75 L1347.5 240.75 1335.5 240.75 M 1347.5 246.75 m -1, 0 a 1,1 0 1,0 2,0 a 1,1 0 1,0 -2,0 M 1347.5 246.75 m -0.5, 0 a 0.5,0.5 0 1,0 1,0 a 0.5,0.5 0 1,0 -1,0  M1347.5 246.75 L1347.5 246.75 1340.5 240.75 1347.5 234.75 M 1347.5 234.75 m -1, 0 a 1,1 0 1,0 2,0 a 1,1 0 1,0 -2,0 M 1347.5 234.75 m -0.5, 0 a 0.5,0.5 0 1,0 1,0 a 0.5,0.5 0 1,0 -1,0  M1335.5 240.75 Q 1112.99 240.75, 890.48 -15.5 T 445.45 -271.75 M 433.45 -271.75 m -1, 0 a 1,1 0 1,0 2,0 a 1,1 0 1,0 -2,0 M 433.45 -271.75 m -0.5, 0 a 0.5,0.5 0 1,0 1,0 a 0.5,0.5 0 1,0 -1,0  M433.45 -271.75 L433.45 -271.75 445.45 -271.75 M439.45 -265.75 L439.45 -265.75 439.45 -277.75" id="h2144058147" class="r"></path><path d="M 865.16 189.5 m -1, 0 a 1,1 0 1,0 2,0 a 1,1 0 1,0 -2,0 M 865.16 189.5 m -0.5, 0 a 0.5,0.5 0 1,0 1,0 a 0.5,0.5 0 1,0 -1,0  M865.16 189.5 L865.16 189.5 877.16 189.5 M 865.16 195.5 m -1, 0 a 1,1 0 1,0 2,0 a 1,1 0 1,0 -2,0 M 865.16 195.5 m -0.5, 0 a 0.5,0.5 0 1,0 1,0 a 0.5,0.5 0 1,0 -1,0  M865.16 195.5 L865.16 195.5 872.16 189.5 865.16 183.5 M 865.16 183.5 m -1, 0 a 1,1 0 1,0 2,0 a 1,1 0 1,0 -2,0 M 865.16 183.5 m -0.5, 0 a 0.5,0.5 0 1,0 1,0 a 0.5,0.5 0 1,0 -1,0  M877.16 189.5 Q 933.31 189.5, 989.46 -73.62 T 1101.75 -336.75 M 1113.75 -336.75 m -1, 0 a 1,1 0 1,0 2,0 a 1,1 0 1,0 -2,0 M 1113.75 -336.75 m -0.5, 0 a 0.5,0.5 0 1,0 1,0 a 0.5,0.5 0 1,0 -1,0  M1113.75 -336.75 L1113.75 -336.75 1101.75 -336.75 M1107.75 -330.75 L1107.75 -330.75 1107.75 -342.75" id="h3364086862" class="r"></path><path d="M 713.75 214.5 m -1, 0 a 1,1 0 1,0 2,0 a 1,1 0 1,0 -2,0 M 713.75 214.5 m -0.5, 0 a 0.5,0.5 0 1,0 1,0 a 0.5,0.5 0 1,0 -1,0  M713.75 214.5 L713.75 214.5 701.75 214.5 M 713.75 220.5 m -1, 0 a 1,1 0 1,0 2,0 a 1,1 0 1,0 -2,0 M 713.75 220.5 m -0.5, 0 a 0.5,0.5 0 1,0 1,0 a 0.5,0.5 0 1,0 -1,0  M713.75 220.5 L713.75 220.5 706.75 214.5 713.75 208.5 M 713.75 208.5 m -1, 0 a 1,1 0 1,0 2,0 a 1,1 0 1,0 -2,0 M 713.75 208.5 m -0.5, 0 a 0.5,0.5 0 1,0 1,0 a 0.5,0.5 0 1,0 -1,0  M701.75 214.5 Q 637.67 214.5, 573.6 -28.62 T 445.45 -271.75 M 433.45 -271.75 m -1, 0 a 1,1 0 1,0 2,0 a 1,1 0 1,0 -2,0 M 433.45 -271.75 m -0.5, 0 a 0.5,0.5 0 1,0 1,0 a 0.5,0.5 0 1,0 -1,0  M433.45 -271.75 L433.45 -271.75 445.45 -271.75 M439.45 -265.75 L439.45 -265.75 439.45 -277.75" id="h4149019389" class="r"></path><path d="M 713.75 239.5 m -1, 0 a 1,1 0 1,0 2,0 a 1,1 0 1,0 -2,0 M 713.75 239.5 m -0.5, 0 a 0.5,0.5 0 1,0 1,0 a 0.5,0.5 0 1,0 -1,0  M713.75 239.5 L713.75 239.5 701.75 239.5 M 713.75 245.5 m -1, 0 a 1,1 0 1,0 2,0 a 1,1 0 1,0 -2,0 M 713.75 245.5 m -0.5, 0 a 0.5,0.5 0 1,0 1,0 a 0.5,0.5 0 1,0 -1,0  M713.75 245.5 L713.75 245.5 706.75 239.5 713.75 233.5 M 713.75 233.5 m -1, 0 a 1,1 0 1,0 2,0 a 1,1 0 1,0 -2,0 M 713.75 233.5 m -0.5, 0 a 0.5,0.5 0 1,0 1,0 a 0.5,0.5 0 1,0 -1,0  M701.75 239.5 Q 637.67 239.5, 573.6 -16.12 T 445.45 -271.75 M 433.45 -271.75 m -1, 0 a 1,1 0 1,0 2,0 a 1,1 0 1,0 -2,0 M 433.45 -271.75 m -0.5, 0 a 0.5,0.5 0 1,0 1,0 a 0.5,0.5 0 1,0 -1,0  M433.45 -271.75 L433.45 -271.75 445.45 -271.75 M439.45 -265.75 L439.45 -265.75 439.45 -277.75" id="h2162475710" class="r"></path><path d="M 713.75 314.5 m -1, 0 a 1,1 0 1,0 2,0 a 1,1 0 1,0 -2,0 M 713.75 314.5 m -0.5, 0 a 0.5,0.5 0 1,0 1,0 a 0.5,0.5 0 1,0 -1,0  M713.75 314.5 L713.75 314.5 701.75 314.5 M 713.75 320.5 m -1, 0 a 1,1 0 1,0 2,0 a 1,1 0 1,0 -2,0 M 713.75 320.5 m -0.5, 0 a 0.5,0.5 0 1,0 1,0 a 0.5,0.5 0 1,0 -1,0  M713.75 320.5 L713.75 320.5 706.75 314.5 713.75 308.5 M 713.75 308.5 m -1, 0 a 1,1 0 1,0 2,0 a 1,1 0 1,0 -2,0 M 713.75 308.5 m -0.5, 0 a 0.5,0.5 0 1,0 1,0 a 0.5,0.5 0 1,0 -1,0  M701.75 314.5 Q 634.41 314.5, 567.06 112.63 T 432.36 -89.25 M 420.36 -89.25 m -1, 0 a 1,1 0 1,0 2,0 a 1,1 0 1,0 -2,0 M 420.36 -89.25 m -0.5, 0 a 0.5,0.5 0 1,0 1,0 a 0.5,0.5 0 1,0 -1,0  M420.36 -89.25 L420.36 -89.25 432.36 -89.25 M426.36 -83.25 L426.36 -83.25 426.36 -95.25" id="h2149611777" class="r"></path><path d="M 713.75 339.5 m -1, 0 a 1,1 0 1,0 2,0 a 1,1 0 1,0 -2,0 M 713.75 339.5 m -0.5, 0 a 0.5,0.5 0 1,0 1,0 a 0.5,0.5 0 1,0 -1,0  M713.75 339.5 L713.75 339.5 701.75 339.5 M 713.75 345.5 m -1, 0 a 1,1 0 1,0 2,0 a 1,1 0 1,0 -2,0 M 713.75 345.5 m -0.5, 0 a 0.5,0.5 0 1,0 1,0 a 0.5,0.5 0 1,0 -1,0  M713.75 345.5 L713.75 345.5 706.75 339.5 713.75 333.5 M 713.75 333.5 m -1, 0 a 1,1 0 1,0 2,0 a 1,1 0 1,0 -2,0 M 713.75 333.5 m -0.5, 0 a 0.5,0.5 0 1,0 1,0 a 0.5,0.5 0 1,0 -1,0  M701.75 339.5 Q 634.41 339.5, 567.06 125.13 T 432.36 -89.25 M 420.36 -89.25 m -1, 0 a 1,1 0 1,0 2,0 a 1,1 0 1,0 -2,0 M 420.36 -89.25 m -0.5, 0 a 0.5,0.5 0 1,0 1,0 a 0.5,0.5 0 1,0 -1,0  M420.36 -89.25 L420.36 -89.25 432.36 -89.25 M426.36 -83.25 L426.36 -83.25 426.36 -95.25" id="h2059825577" class="r"></path><path d="M 713.75 364.5 m -1, 0 a 1,1 0 1,0 2,0 a 1,1 0 1,0 -2,0 M 713.75 364.5 m -0.5, 0 a 0.5,0.5 0 1,0 1,0 a 0.5,0.5 0 1,0 -1,0  M713.75 364.5 L713.75 364.5 701.75 364.5 M 713.75 370.5 m -1, 0 a 1,1 0 1,0 2,0 a 1,1 0 1,0 -2,0 M 713.75 370.5 m -0.5, 0 a 0.5,0.5 0 1,0 1,0 a 0.5,0.5 0 1,0 -1,0  M713.75 370.5 L713.75 370.5 706.75 364.5 713.75 358.5 M 713.75 358.5 m -1, 0 a 1,1 0 1,0 2,0 a 1,1 0 1,0 -2,0 M 713.75 358.5 m -0.5, 0 a 0.5,0.5 0 1,0 1,0 a 0.5,0.5 0 1,0 -1,0  M701.75 364.5 Q 634.41 364.5, 567.06 137.63 T 432.36 -89.25 M 420.36 -89.25 m -1, 0 a 1,1 0 1,0 2,0 a 1,1 0 1,0 -2,0 M 420.36 -89.25 m -0.5, 0 a 0.5,0.5 0 1,0 1,0 a 0.5,0.5 0 1,0 -1,0  M420.36 -89.25 L420.36 -89.25 432.36 -89.25 M426.36 -83.25 L426.36 -83.25 426.36 -95.25" id="h897330977" class="r"></path></g><g class="hrs"></g><g class="ts"><svg width="114.7" height="150" x="318.75" y="-328.75" id="h2129428134" class="t"><rect height="40" width="114.7" class="th"></rect><text x="13" y="25" class="tht">teams</text><rect height="110" width="114.7" class="t-bg"></rect><text x="13" y="61" class="tf pk">id<tspan x="101.7" class="ty">int</tspan></text><path d="M7,14A2,2 0 0,1 5,12A2,2 0 0,1 7,10A2,2 0 0,1 9,12A2,2 0 0,1 7,14M12.65,10C11.83,7.67 9.61,6 7, 6A6, 6 0 0, 0 1, 12A6, 6 0 0, 0 7, 18C9.61, 18 11.83, 16.33 12.65, 14H17V18H21V14H23V10H12.65Z" class="i pk" transform="translate(69.026171875, 48) scale(0.65)"></path><text x="13" y="86" class="tf">name<tspan x="101.7" class="ty">string</tspan></text><text x="13" y="111" class="tf">country<tspan x="101.7" class="ty">string</tspan></text><text x="13" y="136" class="tf">city<tspan x="101.7" class="ty">string</tspan></text></svg><svg width="105.36" height="125" x="315" y="-146.25" id="h441037955" class="t"><rect height="40" width="105.36" class="th"></rect><text x="13" y="25" class="tht">referees</text><rect height="85" width="105.36" class="t-bg"></rect><text x="13" y="61" class="tf pk">id<tspan x="92.36" class="ty">int</tspan></text><path d="M7,14A2,2 0 0,1 5,12A2,2 0 0,1 7,10A2,2 0 0,1 9,12A2,2 0 0,1 7,14M12.65,10C11.83,7.67 9.61,6 7, 6A6, 6 0 0, 0 1, 12A6, 6 0 0, 0 7, 18C9.61, 18 11.83, 16.33 12.65, 14H17V18H21V14H23V10H12.65Z" class="i pk" transform="translate(59.686171875, 48) scale(0.65)"></path><text x="13" y="86" class="tf">name<tspan x="92.36" class="ty">string</tspan></text><text x="13" y="111" class="tf">age<tspan x="92.36" class="ty">int</tspan></text></svg><svg width="122.72" height="125" x="1113.75" y="-393.75" id="h161438138" class="t"><rect height="40" width="122.72" class="th"></rect><text x="13" y="25" class="tht">season</text><rect height="85" width="122.72" class="t-bg"></rect><text x="13" y="61" class="tf pk">id<tspan x="109.72" class="ty">int</tspan></text><path d="M7,14A2,2 0 0,1 5,12A2,2 0 0,1 7,10A2,2 0 0,1 9,12A2,2 0 0,1 7,14M12.65,10C11.83,7.67 9.61,6 7, 6A6, 6 0 0, 0 1, 12A6, 6 0 0, 0 7, 18C9.61, 18 11.83, 16.33 12.65, 14H17V18H21V14H23V10H12.65Z" class="i pk" transform="translate(77.046171875, 48) scale(0.65)"></path><text x="13" y="86" class="tf">start_date<tspan x="109.72" class="ty">date</tspan></text><text x="13" y="111" class="tf">end_date<tspan x="109.72" class="ty">date</tspan></text></svg><svg width="124.02" height="150" x="717.5" y="-386.25" id="h3636817144" class="t"><rect height="40" width="124.02" class="th"></rect><text x="13" y="25" class="tht">goals</text><rect height="110" width="124.02" class="t-bg"></rect><text x="13" y="61" class="tf pk">id<tspan x="111.02" class="ty">int</tspan></text><path d="M7,14A2,2 0 0,1 5,12A2,2 0 0,1 7,10A2,2 0 0,1 9,12A2,2 0 0,1 7,14M12.65,10C11.83,7.67 9.61,6 7, 6A6, 6 0 0, 0 1, 12A6, 6 0 0, 0 7, 18C9.61, 18 11.83, 16.33 12.65, 14H17V18H21V14H23V10H12.65Z" class="i pk" transform="translate(78.346171875, 48) scale(0.65)"></path><text x="13" y="86" class="tf fk">player_id<tspan x="111.02" class="ty">int</tspan></text><text x="13" y="111" class="tf fk">match_id<tspan x="111.02" class="ty">int</tspan></text><text x="13" y="136" class="tf">time<tspan x="111.02" class="ty">timestamp</tspan></text></svg><svg width="107.37" height="150" x="1241.25" y="-180" id="h3479580529" class="t"><rect height="40" width="107.37" class="th"></rect><text x="13" y="25" class="tht">results</text><rect height="110" width="107.37" class="t-bg"></rect><text x="13" y="61" class="tf pk">id<tspan x="94.37" class="ty">int</tspan></text><path d="M7,14A2,2 0 0,1 5,12A2,2 0 0,1 7,10A2,2 0 0,1 9,12A2,2 0 0,1 7,14M12.65,10C11.83,7.67 9.61,6 7, 6A6, 6 0 0, 0 1, 12A6, 6 0 0, 0 7, 18C9.61, 18 11.83, 16.33 12.65, 14H17V18H21V14H23V10H12.65Z" class="i pk" transform="translate(61.696171875000005, 48) scale(0.65)"></path><text x="13" y="86" class="tf fk">match_id<tspan x="94.37" class="ty">int</tspan></text><text x="13" y="111" class="tf fk">team_id<tspan x="94.37" class="ty">int</tspan></text><text x="13" y="136" class="tf">result<tspan x="94.37" class="ty">string</tspan></text></svg><svg width="101.37" height="125" x="1347.5" y="133.75" id="h368454595" class="t"><rect height="40" width="101.37" class="th"></rect><text x="13" y="25" class="tht">rankings</text><rect height="85" width="101.37" class="t-bg"></rect><text x="13" y="61" class="tf pk">id<tspan x="88.37" class="ty">int</tspan></text><path d="M7,14A2,2 0 0,1 5,12A2,2 0 0,1 7,10A2,2 0 0,1 9,12A2,2 0 0,1 7,14M12.65,10C11.83,7.67 9.61,6 7, 6A6, 6 0 0, 0 1, 12A6, 6 0 0, 0 7, 18C9.61, 18 11.83, 16.33 12.65, 14H17V18H21V14H23V10H12.65Z" class="i pk" transform="translate(55.696171875000005, 48) scale(0.65)"></path><text x="13" y="86" class="tf">points<tspan x="88.37" class="ty">int</tspan></text><text x="13" y="111" class="tf fk">team_id<tspan x="88.37" class="ty">int</tspan></text></svg><svg width="151.41" height="325" x="713.75" y="57.5" id="h272759971" class="t"><rect height="40" width="151.41" class="th"></rect><text x="13" y="25" class="tht">matches</text><rect height="285" width="151.41" class="t-bg"></rect><text x="13" y="61" class="tf pk">id<tspan x="138.41" class="ty">int</tspan></text><path d="M7,14A2,2 0 0,1 5,12A2,2 0 0,1 7,10A2,2 0 0,1 9,12A2,2 0 0,1 7,14M12.65,10C11.83,7.67 9.61,6 7, 6A6, 6 0 0, 0 1, 12A6, 6 0 0, 0 7, 18C9.61, 18 11.83, 16.33 12.65, 14H17V18H21V14H23V10H12.65Z" class="i pk" transform="translate(105.736171875, 48) scale(0.65)"></path><text x="13" y="86" class="tf">date<tspan x="138.41" class="ty">date</tspan></text><text x="13" y="111" class="tf">location<tspan x="138.41" class="ty">string</tspan></text><text x="13" y="136" class="tf fk">season_id<tspan x="138.41" class="ty">int</tspan></text><text x="13" y="161" class="tf fk">home_team_id<tspan x="138.41" class="ty">int</tspan></text><text x="13" y="186" class="tf fk">guest_team_id<tspan x="138.41" class="ty">int</tspan></text><text x="13" y="211" class="tf">start_time<tspan x="138.41" class="ty">time</tspan></text><text x="13" y="236" class="tf">duration<tspan x="138.41" class="ty">int</tspan></text><text x="13" y="261" class="tf fk">head_referee_id<tspan x="138.41" class="ty">int</tspan></text><text x="13" y="286" class="tf fk">line_referee_1_id<tspan x="138.41" class="ty">int</tspan></text><text x="13" y="311" class="tf fk">line_referee_2_id<tspan x="138.41" class="ty">int</tspan></text></svg><svg width="124.04" height="175" x="291.25" y="115" id="h2511403611" class="t"><rect height="40" width="124.04" class="th"></rect><text x="13" y="25" class="tht">players</text><rect height="135" width="124.04" class="t-bg"></rect><text x="13" y="61" class="tf pk">id<tspan x="111.04" class="ty">int</tspan></text><path d="M7,14A2,2 0 0,1 5,12A2,2 0 0,1 7,10A2,2 0 0,1 9,12A2,2 0 0,1 7,14M12.65,10C11.83,7.67 9.61,6 7, 6A6, 6 0 0, 0 1, 12A6, 6 0 0, 0 7, 18C9.61, 18 11.83, 16.33 12.65, 14H17V18H21V14H23V10H12.65Z" class="i pk" transform="translate(78.366171875, 48) scale(0.65)"></path><text x="13" y="86" class="tf">name<tspan x="111.04" class="ty">string</tspan></text><text x="13" y="111" class="tf">birthday<tspan x="111.04" class="ty">date</tspan></text><text x="13" y="136" class="tf fk">team_id<tspan x="111.04" class="ty">int</tspan></text><text x="13" y="161" class="tf">field_role<tspan x="111.04" class="ty">string</tspan></text></svg></g></g><text class="qdbd-link" x="10" y="20">www.quickdatabasediagrams.com</text></svg>